<?xml version="1.0" standalone="no"?>
<!DOCTYPE svg PUBLIC "-//W3C//DTD SVG 20010904//EN"
 "http://www.w3.org/TR/2001/REC-SVG-20010904/DTD/svg10.dtd">
<svg version="1.0" xmlns="http://www.w3.org/2000/svg"
 width="958.000000pt" height="958.000000pt" viewBox="0 0 958.000000 958.000000"
 preserveAspectRatio="xMidYMid meet">
<metadata>
Created by potrace 1.14, written by Peter Selinger 2001-2017
</metadata>
<g transform="translate(0.000000,958.000000) scale(0.100000,-0.100000)"
fill="#000000" stroke="none">
<path d="M7375 8908 c-58 -16 -144 -39 -235 -63 -8 -2 -67 -18 -130 -36 -63
-17 -176 -46 -250 -65 -74 -19 -146 -39 -160 -44 -14 -5 -36 -12 -50 -14 -31
-6 -271 -70 -360 -96 -36 -10 -76 -21 -90 -24 -14 -3 -108 -28 -210 -56 -102
-28 -194 -53 -205 -56 -11 -2 -76 -20 -145 -39 -69 -20 -140 -38 -159 -40 -18
-3 -42 -10 -52 -16 -10 -5 -19 -7 -19 -5 0 3 -12 1 -27 -5 -24 -9 -143 -42
-193 -54 -38 -8 -447 -117 -460 -122 -20 -8 -30 -11 -58 -17 -13 -3 -32 -8
-42 -11 -10 -3 -27 -8 -37 -10 -10 -2 -34 -9 -53 -14 -19 -5 -69 -19 -110 -29
-41 -11 -111 -30 -155 -42 -113 -30 -227 -60 -246 -64 -16 -4 -267 -71 -379
-102 -14 -4 -27 -7 -30 -7 -3 0 -16 -4 -30 -9 -24 -9 -35 -12 -79 -22 -10 -3
-70 -19 -132 -36 -63 -18 -121 -33 -129 -35 -8 -2 -42 -10 -75 -19 -116 -32
-210 -57 -225 -61 -8 -2 -51 -13 -95 -25 -44 -12 -84 -23 -90 -25 -16 -3 -236
-62 -370 -99 -5 -2 -23 -6 -40 -10 -16 -5 -79 -21 -140 -38 -60 -16 -119 -32
-130 -34 -11 -2 -67 -18 -125 -34 -58 -17 -114 -33 -125 -35 -11 -2 -79 -20
-152 -40 -142 -39 -171 -46 -190 -47 -23 -2 -21 -24 13 -148 77 -279 95 -346
100 -368 6 -29 19 -78 79 -301 26 -95 48 -181 50 -190 2 -9 10 -36 17 -61 11
-37 13 -516 13 -2687 l0 -2643 3152 0 3151 0 1 2644 0 2644 -3107 1 c-1709 0
-3120 0 -3136 1 -32 0 -31 8 2 15 29 5 184 46 202 52 8 3 20 7 26 8 6 2 38 11
70 20 33 9 66 18 74 20 8 2 59 15 113 30 53 14 105 28 115 30 9 2 145 38 302
80 157 42 292 78 300 80 41 11 251 68 293 80 26 8 47 11 47 8 0 -3 7 0 15 7 8
7 15 9 15 6 0 -4 8 -2 18 3 11 6 30 12 43 15 13 2 60 14 104 26 194 52 301 81
315 84 8 2 35 9 60 16 25 7 52 14 60 15 8 2 30 8 48 14 17 5 32 7 32 4 0 -3 7
1 17 8 9 8 18 13 20 12 1 -2 4 -3 6 -2 1 0 9 2 17 4 8 1 78 19 155 40 77 20
145 38 150 39 6 2 30 8 55 15 25 7 53 15 62 17 27 6 48 12 108 29 47 14 214
59 260 70 8 2 92 25 185 50 94 26 186 50 205 55 19 4 87 22 150 39 63 18 126
34 140 37 14 2 36 9 50 14 23 8 171 47 213 55 9 2 22 7 27 10 6 4 20 8 33 11
12 2 72 17 132 34 61 17 119 33 130 35 11 3 79 21 150 40 72 20 138 38 147 40
9 2 79 20 155 40 76 20 145 38 153 40 8 2 56 15 105 28 50 14 108 30 130 36
22 5 83 21 135 36 52 14 102 27 110 30 8 2 83 22 165 45 83 22 160 43 172 46
12 2 33 8 45 13 13 5 25 8 28 8 12 -1 146 37 154 44 6 5 5 23 -3 46 -7 21 -14
47 -16 58 -2 11 -4 20 -5 20 -1 0 -4 11 -7 25 -6 30 -8 41 -15 60 -3 8 -15 51
-27 95 -12 44 -40 150 -62 235 -23 85 -43 162 -44 170 -2 8 -4 15 -5 15 -1 0
-3 7 -5 16 -3 15 -49 187 -82 307 -8 28 -17 52 -21 51 -4 -1 -38 -10 -77 -21z"/>
</g>
</svg>
